<svg width="150" height="27" viewBox="0 0 150 27" fill="none" xmlns="http://www.w3.org/2000/svg">
<path d="M5.4234 22.115H13.4734V26H0.523399V1.57H5.4234V22.115ZM34.8929 6.61V26H29.9579V23.55C29.3279 24.39 28.4995 25.055 27.4729 25.545C26.4695 26.0117 25.3729 26.245 24.1829 26.245C22.6662 26.245 21.3245 25.93 20.1579 25.3C18.9912 24.6467 18.0695 23.7017 17.3929 22.465C16.7395 21.205 16.4129 19.7117 16.4129 17.985V6.61H21.3129V17.285C21.3129 18.825 21.6979 20.015 22.4679 20.855C23.2379 21.6717 24.2879 22.08 25.6179 22.08C26.9712 22.08 28.0329 21.6717 28.8029 20.855C29.5729 20.015 29.9579 18.825 29.9579 17.285V6.61H34.8929Z" fill="black"/>
<path d="M38.5375 13.75C38.5375 11.3467 39.0742 9.2 40.1475 7.31C41.2442 5.39666 42.7258 3.915 44.5925 2.865C46.4825 1.79167 48.5942 1.255 50.9275 1.255C53.6575 1.255 56.0492 1.955 58.1025 3.355C60.1558 4.755 61.5908 6.69167 62.4075 9.165H56.7725C56.2125 7.99833 55.4192 7.12333 54.3925 6.54C53.3892 5.95667 52.2225 5.665 50.8925 5.665C49.4692 5.665 48.1975 6.00333 47.0775 6.68C45.9808 7.33333 45.1175 8.26667 44.4875 9.48C43.8808 10.6933 43.5775 12.1167 43.5775 13.75C43.5775 15.36 43.8808 16.7833 44.4875 18.02C45.1175 19.2333 45.9808 20.1783 47.0775 20.855C48.1975 21.5083 49.4692 21.835 50.8925 21.835C52.2225 21.835 53.3892 21.5433 54.3925 20.96C55.4192 20.3533 56.2125 19.4667 56.7725 18.3H62.4075C61.5908 20.7967 60.1558 22.745 58.1025 24.145C56.0725 25.5217 53.6808 26.21 50.9275 26.21C48.5942 26.21 46.4825 25.685 44.5925 24.635C42.7258 23.5617 41.2442 22.08 40.1475 20.19C39.0742 18.3 38.5375 16.1533 38.5375 13.75ZM75.2027 26.315C73.3361 26.315 71.6561 25.9067 70.1627 25.09C68.6694 24.25 67.4911 23.0717 66.6277 21.555C65.7877 20.0383 65.3677 18.2883 65.3677 16.305C65.3677 14.3217 65.7994 12.5717 66.6627 11.055C67.5494 9.53833 68.7511 8.37167 70.2677 7.555C71.7844 6.715 73.4761 6.295 75.3427 6.295C77.2094 6.295 78.9011 6.715 80.4177 7.555C81.9344 8.37167 83.1244 9.53833 83.9877 11.055C84.8744 12.5717 85.3177 14.3217 85.3177 16.305C85.3177 18.2883 84.8627 20.0383 83.9527 21.555C83.0661 23.0717 81.8527 24.25 80.3127 25.09C78.7961 25.9067 77.0927 26.315 75.2027 26.315ZM75.2027 22.045C76.0894 22.045 76.9177 21.835 77.6877 21.415C78.4811 20.9717 79.1111 20.3183 79.5777 19.455C80.0444 18.5917 80.2777 17.5417 80.2777 16.305C80.2777 14.4617 79.7877 13.05 78.8077 12.07C77.8511 11.0667 76.6727 10.565 75.2727 10.565C73.8727 10.565 72.6944 11.0667 71.7377 12.07C70.8044 13.05 70.3377 14.4617 70.3377 16.305C70.3377 18.1483 70.7927 19.5717 71.7027 20.575C72.6361 21.555 73.8027 22.045 75.2027 22.045ZM87.6521 16.235C87.6521 14.275 88.0371 12.5367 88.8071 11.02C89.6004 9.50333 90.6737 8.33667 92.0271 7.52C93.3804 6.70333 94.8854 6.295 96.5421 6.295C97.8021 6.295 99.0037 6.575 100.147 7.135C101.29 7.67167 102.2 8.395 102.877 9.305V0.0999997H107.847V26H102.877V23.13C102.27 24.0867 101.419 24.8567 100.322 25.44C99.2254 26.0233 97.9537 26.315 96.5071 26.315C94.8737 26.315 93.3804 25.895 92.0271 25.055C90.6737 24.215 89.6004 23.0367 88.8071 21.52C88.0371 19.98 87.6521 18.2183 87.6521 16.235ZM102.912 16.305C102.912 15.115 102.679 14.1 102.212 13.26C101.745 12.3967 101.115 11.7433 100.322 11.3C99.5287 10.8333 98.6771 10.6 97.7671 10.6C96.8571 10.6 96.0171 10.8217 95.2471 11.265C94.4771 11.7083 93.8471 12.3617 93.3571 13.225C92.8904 14.065 92.6571 15.0683 92.6571 16.235C92.6571 17.4017 92.8904 18.4283 93.3571 19.315C93.8471 20.1783 94.4771 20.8433 95.2471 21.31C96.0404 21.7767 96.8804 22.01 97.7671 22.01C98.6771 22.01 99.5287 21.7883 100.322 21.345C101.115 20.8783 101.745 20.225 102.212 19.385C102.679 18.5217 102.912 17.495 102.912 16.305ZM130.658 15.885C130.658 16.585 130.611 17.215 130.518 17.775H116.343C116.459 19.175 116.949 20.2717 117.813 21.065C118.676 21.8583 119.738 22.255 120.998 22.255C122.818 22.255 124.113 21.4733 124.883 19.91H130.168C129.608 21.7767 128.534 23.3167 126.948 24.53C125.361 25.72 123.413 26.315 121.103 26.315C119.236 26.315 117.556 25.9067 116.063 25.09C114.593 24.25 113.438 23.0717 112.598 21.555C111.781 20.0383 111.373 18.2883 111.373 16.305C111.373 14.2983 111.781 12.5367 112.598 11.02C113.414 9.50333 114.558 8.33667 116.028 7.52C117.498 6.70333 119.189 6.295 121.103 6.295C122.946 6.295 124.591 6.69167 126.038 7.485C127.508 8.27833 128.639 9.41 129.433 10.88C130.249 12.3267 130.658 13.995 130.658 15.885ZM125.583 14.485C125.559 13.225 125.104 12.2217 124.218 11.475C123.331 10.705 122.246 10.32 120.963 10.32C119.749 10.32 118.723 10.6933 117.883 11.44C117.066 12.1633 116.564 13.1783 116.378 14.485H125.583ZM141.654 26.315C140.068 26.315 138.644 26.035 137.384 25.475C136.124 24.8917 135.121 24.11 134.374 23.13C133.651 22.15 133.254 21.065 133.184 19.875H138.119C138.213 20.6217 138.574 21.24 139.204 21.73C139.858 22.22 140.663 22.465 141.619 22.465C142.553 22.465 143.276 22.2783 143.789 21.905C144.326 21.5317 144.594 21.0533 144.594 20.47C144.594 19.84 144.268 19.3733 143.614 19.07C142.984 18.7433 141.969 18.3933 140.569 18.02C139.123 17.67 137.933 17.3083 136.999 16.935C136.089 16.5617 135.296 15.99 134.619 15.22C133.966 14.45 133.639 13.4117 133.639 12.105C133.639 11.0317 133.943 10.0517 134.549 9.165C135.179 8.27833 136.066 7.57833 137.209 7.065C138.376 6.55167 139.741 6.295 141.304 6.295C143.614 6.295 145.458 6.87833 146.834 8.045C148.211 9.18833 148.969 10.74 149.109 12.7H144.419C144.349 11.93 144.023 11.3233 143.439 10.88C142.879 10.4133 142.121 10.18 141.164 10.18C140.278 10.18 139.589 10.3433 139.099 10.67C138.633 10.9967 138.399 11.4517 138.399 12.035C138.399 12.6883 138.726 13.19 139.379 13.54C140.033 13.8667 141.048 14.205 142.424 14.555C143.824 14.905 144.979 15.2667 145.889 15.64C146.799 16.0133 147.581 16.5967 148.234 17.39C148.911 18.16 149.261 19.1867 149.284 20.47C149.284 21.59 148.969 22.5933 148.339 23.48C147.733 24.3667 146.846 25.0667 145.679 25.58C144.536 26.07 143.194 26.315 141.654 26.315Z" fill="#329DFF"/>
</svg>
